<svg width="24" height="24" viewBox="0 0 24 24" fill="none" xmlns="http://www.w3.org/2000/svg">
<g opacity="0.6">
<path d="M11.9999 20.4148C13.0599 21.3648 14.4599 21.9398 15.9999 21.9398C19.3098 21.9398 21.9998 19.2498 21.9998 15.9399C21.9998 13.2849 20.2798 11.0399 17.8949 10.2449" stroke="white" stroke-linecap="round" stroke-linejoin="round"/>
<path d="M13.5849 13.7449C13.8499 14.4199 13.9949 15.1649 13.9949 15.9349C13.9949 19.2448 11.3049 21.9348 7.99494 21.9348C4.67997 21.9348 1.995 19.2448 1.995 15.9349C1.9945 13.2749 3.71998 11.0199 6.11495 10.2349" stroke="white" stroke-linecap="round" stroke-linejoin="round"/>
<path d="M11.9999 13.9399C15.3099 13.9399 17.9999 11.2499 17.9999 7.93994C17.9999 4.62497 15.3099 1.935 11.9999 1.935C8.68494 1.9345 5.99997 4.61997 5.99997 7.93494C5.99997 11.2449 8.68494 13.9349 11.9999 13.9349V13.9399Z" stroke="white" stroke-linecap="round" stroke-linejoin="round"/>
</g>
</svg>
