<svg width="24" height="24" viewBox="0 0 24 24" fill="none" xmlns="http://www.w3.org/2000/svg">
<path d="M14.4431 13.8215L14.4431 13.8215L10.6931 16.0715L10.6926 16.0718C10.6338 16.1072 10.5673 16.125 10.5 16.125C10.4358 16.125 10.3725 16.1088 10.3159 16.0766L10.3151 16.0762C10.1978 16.0098 10.125 15.8852 10.125 15.75V11.25C10.125 11.1148 10.1978 10.9902 10.3151 10.9238L10.3157 10.9235C10.4325 10.8572 10.5769 10.8588 10.693 10.9284L10.6931 10.9285L14.4431 13.1785L14.4431 13.1785C14.5559 13.2462 14.625 13.3682 14.625 13.5C14.625 13.6318 14.5559 13.7538 14.4431 13.8215ZM10.4397 5.625H11.2199L10.7325 5.01574L8.70725 2.48412L8.70716 2.484C8.57771 2.32233 8.60399 2.08654 8.76563 1.95745L8.76576 1.95735C8.9272 1.8283 9.16341 1.85434 9.29284 2.016L11.7072 5.03391L12 5.39995L12.2928 5.03391L14.7073 2.01588L14.7077 2.01531C14.8359 1.85445 15.0718 1.82778 15.2344 1.95745C15.396 2.08654 15.4223 2.32233 15.2928 2.484L15.2927 2.48412L13.2675 5.01574L12.7801 5.625H13.5603H15C16.9101 5.625 18.5044 6.21729 19.6162 7.20547C20.7247 8.19078 21.375 9.58777 21.375 11.25V15.75C21.375 19.2647 18.5147 22.125 15 22.125H9C5.48531 22.125 2.625 19.2647 2.625 15.75V11.25C2.625 9.58777 3.27533 8.19078 4.38384 7.20547C5.49558 6.21729 7.08992 5.625 9 5.625H10.4397ZM20.625 11.25C20.625 9.57473 19.9078 8.33948 18.8294 7.53392C17.7639 6.73794 16.3667 6.375 15 6.375H9C7.63326 6.375 6.23613 6.73794 5.17059 7.53392C4.09224 8.33948 3.375 9.57473 3.375 11.25V15.75C3.375 18.852 5.898 21.375 9 21.375H15C18.102 21.375 20.625 18.852 20.625 15.75V11.25Z" fill="black" stroke="url(#paint0_radial_114_151)" stroke-width="0.75"/>
<defs>
<radialGradient id="paint0_radial_114_151" cx="0" cy="0" r="1" gradientUnits="userSpaceOnUse" gradientTransform="translate(21.75 12.0001) rotate(-180) scale(19.5 95.715)">
<stop offset="0.385417" stop-color="#D11AFF"/>
<stop offset="1" stop-color="#FFAA89"/>
</radialGradient>
</defs>
</svg>
